<svg width="62" height="58" viewBox="0 0 62 58" fill="none" xmlns="http://www.w3.org/2000/svg">
<path d="M14.3375 42.5937C17.05 40.8215 19.741 39.4621 22.4104 38.5156C25.0799 37.5691 27.9431 37.0958 31 37.0958C34.0569 37.0958 36.9309 37.5691 39.6219 38.5156C42.3128 39.4621 45.0146 40.8215 47.7271 42.5937C49.6215 40.4187 50.967 38.2236 51.7635 36.0083C52.5601 33.793 52.9583 31.4569 52.9583 29C52.9583 23.1597 50.8594 18.276 46.6615 14.349C42.4635 10.4219 37.2431 8.45833 31 8.45833C24.7569 8.45833 19.5365 10.4219 15.3385 14.349C11.1406 18.276 9.04167 23.1597 9.04167 29C9.04167 31.4569 9.45069 33.793 10.2687 36.0083C11.0868 38.2236 12.4431 40.4187 14.3375 42.5937ZM30.988 30.8125C28.4988 30.8125 26.4038 30.0133 24.7031 28.4148C23.0024 26.8163 22.1521 24.8528 22.1521 22.5242C22.1521 20.1956 23.0064 18.2358 24.7151 16.6448C26.4238 15.0538 28.5228 14.2583 31.012 14.2583C33.5012 14.2583 35.5962 15.0576 37.2969 16.656C38.9976 18.2545 39.8479 20.218 39.8479 22.5466C39.8479 24.8753 38.9936 26.8351 37.2849 28.426C35.5762 30.017 33.4772 30.8125 30.988 30.8125ZM31.0302 53.1667C27.4795 53.1667 24.1326 52.5323 20.9896 51.2635C17.8465 49.9948 15.1017 48.2628 12.7552 46.0677C10.4087 43.8726 8.55729 41.3096 7.20104 38.3787C5.84479 35.4479 5.16667 32.3163 5.16667 28.9839C5.16667 25.6516 5.84479 22.5253 7.20104 19.6052C8.55729 16.6851 10.4087 14.1274 12.7552 11.9323C15.1017 9.73715 17.8415 8.0052 20.9745 6.73645C24.1075 5.4677 27.455 4.83333 31.0172 4.83333C34.5793 4.83333 37.9212 5.4677 41.0427 6.73645C44.1642 8.0052 46.8983 9.73715 49.2448 11.9323C51.5913 14.1274 53.4427 16.6857 54.799 19.6071C56.1552 22.5286 56.8333 25.6501 56.8333 28.9717C56.8333 32.2933 56.1552 35.4243 54.799 38.3646C53.4427 41.3049 51.5913 43.8726 49.2448 46.0677C46.8983 48.2628 44.1635 49.9948 41.0406 51.2635C37.9177 52.5323 34.5809 53.1667 31.0302 53.1667ZM31 49.5417C33.3681 49.5417 35.6823 49.2194 37.9427 48.575C40.2031 47.9305 42.4313 46.8028 44.6271 45.1917C42.4313 43.7417 40.1924 42.634 37.9104 41.8687C35.6285 41.1035 33.325 40.7208 31 40.7208C28.675 40.7208 26.3715 41.1035 24.0896 41.8687C21.8076 42.634 19.5687 43.7417 17.3729 45.1917C19.5687 46.8028 21.7969 47.9305 24.0573 48.575C26.3177 49.2194 28.6319 49.5417 31 49.5417ZM31 27.1875C32.4639 27.1875 33.6587 26.7545 34.5844 25.8885C35.5101 25.0226 35.9729 23.9049 35.9729 22.5354C35.9729 21.166 35.5101 20.0483 34.5844 19.1823C33.6587 18.3163 32.4639 17.8833 31 17.8833C29.5361 17.8833 28.3413 18.3163 27.4156 19.1823C26.4899 20.0483 26.0271 21.166 26.0271 22.5354C26.0271 23.9049 26.4899 25.0226 27.4156 25.8885C28.3413 26.7545 29.5361 27.1875 31 27.1875Z" fill="black"/>
</svg>
