<svg width="48" height="48" viewBox="0 0 48 48" fill="none" xmlns="http://www.w3.org/2000/svg">
<path d="M22.65 19.75H34.05V16.75H22.65V19.75ZM22.65 31.25H34.05V28.25H22.65V31.25ZM17.4 20.85C18.115 20.85 18.7271 20.5954 19.2363 20.0863C19.7454 19.5771 20 18.965 20 18.25C20 17.535 19.7454 16.9229 19.2363 16.4137C18.7271 15.9046 18.115 15.65 17.4 15.65C16.685 15.65 16.0729 15.9046 15.5638 16.4137C15.0546 16.9229 14.8 17.535 14.8 18.25C14.8 18.965 15.0546 19.5771 15.5638 20.0863C16.0729 20.5954 16.685 20.85 17.4 20.85ZM17.4 32.35C18.115 32.35 18.7271 32.0954 19.2363 31.5862C19.7454 31.0771 20 30.465 20 29.75C20 29.035 19.7454 28.4229 19.2363 27.9138C18.7271 27.4046 18.115 27.15 17.4 27.15C16.685 27.15 16.0729 27.4046 15.5638 27.9138C15.0546 28.4229 14.8 29.035 14.8 29.75C14.8 30.465 15.0546 31.0771 15.5638 31.5862C16.0729 32.0954 16.685 32.35 17.4 32.35ZM9 42C8.2 42 7.5 41.7 6.9 41.1C6.3 40.5 6 39.8 6 39V9C6 8.2 6.3 7.5 6.9 6.9C7.5 6.3 8.2 6 9 6H39C39.8 6 40.5 6.3 41.1 6.9C41.7 7.5 42 8.2 42 9V39C42 39.8 41.7 40.5 41.1 41.1C40.5 41.7 39.8 42 39 42H9ZM9 39H39V9H9V39Z" fill="white"/>
</svg>
