<svg width="77" height="78" viewBox="0 0 77 78" fill="none" xmlns="http://www.w3.org/2000/svg">
<g clip-path="url(#clip0_224_88)">
<path d="M-9.53674e-07 58.5V54.1937C-9.53674e-07 52.1047 1.10955 50.4043 3.32864 49.0925C5.54774 47.7808 8.45866 47.125 12.0614 47.125C12.7119 47.125 13.3374 47.1385 13.9379 47.1656C14.5383 47.1927 15.1326 47.251 15.7208 47.3405C15.2931 48.2802 14.9722 49.2325 14.7583 50.1976C14.5444 51.1627 14.4375 52.1698 14.4375 53.2188V58.5H-9.53674e-07ZM19.25 58.5V53.2188C19.25 51.4854 19.7179 49.901 20.6536 48.4656C21.5894 47.0302 22.9128 45.7708 24.624 44.6875C26.3351 43.6042 28.3804 42.7917 30.7599 42.25C33.1394 41.7083 35.7194 41.4375 38.5 41.4375C41.334 41.4375 43.9408 41.7083 46.3203 42.25C48.6998 42.7917 50.7451 43.6042 52.4562 44.6875C54.1674 45.7708 55.4774 47.0302 56.3865 48.4656C57.2955 49.901 57.75 51.4854 57.75 53.2188V58.5H19.25ZM62.5625 58.5V53.2188C62.5625 52.1429 62.4689 51.1292 62.2818 50.1775C62.0946 49.2258 61.7872 48.2822 61.3594 47.3466C61.9476 47.253 62.5403 47.1927 63.1377 47.1656C63.7351 47.1385 64.3454 47.125 64.9687 47.125C68.5781 47.125 71.4857 47.7687 73.6914 49.0561C75.8971 50.3436 77 52.0561 77 54.1937V58.5H62.5625ZM24.0625 53.625H52.9375V53.1375C52.9375 51.1333 51.5873 49.4948 48.887 48.2219C46.1866 46.949 42.7243 46.3125 38.5 46.3125C34.2757 46.3125 30.8134 46.949 28.113 48.2219C25.4127 49.4948 24.0625 51.1604 24.0625 53.2188V53.625ZM11.9965 44.6875C10.469 44.6875 9.15712 44.1306 8.06094 43.0168C6.96476 41.903 6.41667 40.5641 6.41667 39C6.41667 37.4292 6.96641 36.0885 8.06591 34.9781C9.16546 33.8677 10.4872 33.3125 12.0312 33.3125C13.5819 33.3125 14.9054 33.8677 16.0016 34.9781C17.0977 36.0885 17.6458 37.4409 17.6458 39.0352C17.6458 40.5826 17.0977 41.9115 16.0016 43.0219C14.9054 44.1323 13.5704 44.6875 11.9965 44.6875ZM64.934 44.6875C63.4065 44.6875 62.0946 44.1306 60.9984 43.0168C59.9023 41.903 59.3542 40.5641 59.3542 39C59.3542 37.4292 59.9039 36.0885 61.0034 34.9781C62.103 33.8677 63.4247 33.3125 64.9687 33.3125C66.5194 33.3125 67.8429 33.8677 68.9391 34.9781C70.0352 36.0885 70.5833 37.4409 70.5833 39.0352C70.5833 40.5826 70.0352 41.9115 68.9391 43.0219C67.8429 44.1323 66.5079 44.6875 64.934 44.6875ZM38.5 39C35.8264 39 33.5538 38.0521 31.6823 36.1562C29.8108 34.2604 28.875 31.9583 28.875 29.25C28.875 26.4875 29.8108 24.1719 31.6823 22.3031C33.5538 20.4344 35.8264 19.5 38.5 19.5C41.2271 19.5 43.513 20.4344 45.3578 22.3031C47.2026 24.1719 48.125 26.4875 48.125 29.25C48.125 31.9583 47.2026 34.2604 45.3578 36.1562C43.513 38.0521 41.2271 39 38.5 39ZM38.5282 34.125C39.8997 34.125 41.0399 33.6551 41.949 32.7152C42.858 31.7754 43.3125 30.6108 43.3125 29.2215C43.3125 27.8322 42.854 26.6771 41.937 25.7562C41.02 24.8354 39.8837 24.375 38.5282 24.375C37.1726 24.375 36.0269 24.8395 35.0911 25.7684C34.1554 26.6973 33.6875 27.8483 33.6875 29.2215C33.6875 30.5947 34.1514 31.7552 35.0792 32.7031C36.007 33.651 37.1566 34.125 38.5282 34.125Z" fill="black"/>
</g>
<defs>
<clipPath id="clip0_224_88">
<rect width="77" height="78" fill="white"/>
</clipPath>
</defs>
</svg>
