<svg width="64" height="64" viewBox="0 0 64 64" fill="none" xmlns="http://www.w3.org/2000/svg">
<path d="M2.53333 53.3333V47.0667C2.53333 45.5111 2.93333 44.1 3.73333 42.8333C4.53333 41.5667 5.64444 40.6222 7.06666 40C10.3111 38.5778 13.2333 37.5555 15.8333 36.9333C18.4333 36.3111 21.1111 36 23.8667 36C26.6222 36 29.2889 36.3111 31.8667 36.9333C34.4444 37.5555 37.3555 38.5778 40.6 40C42.0222 40.6222 43.1444 41.5667 43.9667 42.8333C44.7889 44.1 45.2 45.5111 45.2 47.0667V53.3333H2.53333ZM49.2 53.3333V47.0667C49.2 44.2667 48.4889 41.9667 47.0667 40.1667C45.6444 38.3667 43.7778 36.9111 41.4667 35.8C44.5333 36.1555 47.4222 36.6778 50.1333 37.3667C52.8444 38.0555 55.0444 38.8444 56.7333 39.7333C58.2 40.5778 59.3555 41.6222 60.2 42.8667C61.0444 44.1111 61.4667 45.5111 61.4667 47.0667V53.3333H49.2ZM23.8667 31.9333C20.9333 31.9333 18.5333 31 16.6667 29.1333C14.8 27.2667 13.8667 24.8667 13.8667 21.9333C13.8667 19 14.8 16.6 16.6667 14.7333C18.5333 12.8667 20.9333 11.9333 23.8667 11.9333C26.8 11.9333 29.2 12.8667 31.0667 14.7333C32.9333 16.6 33.8667 19 33.8667 21.9333C33.8667 24.8667 32.9333 27.2667 31.0667 29.1333C29.2 31 26.8 31.9333 23.8667 31.9333ZM47.8667 21.9333C47.8667 24.8667 46.9333 27.2667 45.0667 29.1333C43.2 31 40.8 31.9333 37.8667 31.9333C37.3778 31.9333 36.8333 31.9 36.2333 31.8333C35.6333 31.7667 35.0889 31.6444 34.6 31.4667C35.6667 30.3555 36.4778 28.9889 37.0333 27.3667C37.5889 25.7444 37.8667 23.9333 37.8667 21.9333C37.8667 19.9333 37.5889 18.1667 37.0333 16.6333C36.4778 15.1 35.6667 13.6889 34.6 12.4C35.0889 12.2667 35.6333 12.1555 36.2333 12.0667C36.8333 11.9778 37.3778 11.9333 37.8667 11.9333C40.8 11.9333 43.2 12.8667 45.0667 14.7333C46.9333 16.6 47.8667 19 47.8667 21.9333ZM6.53333 49.3333H41.2V47.0667C41.2 46.3555 40.9889 45.6667 40.5667 45C40.1444 44.3333 39.6222 43.8667 39 43.6C35.8 42.1778 33.1111 41.2222 30.9333 40.7333C28.7555 40.2444 26.4 40 23.8667 40C21.3333 40 18.9667 40.2444 16.7667 40.7333C14.5667 41.2222 11.8667 42.1778 8.66666 43.6C8.04444 43.8667 7.53333 44.3333 7.13333 45C6.73333 45.6667 6.53333 46.3555 6.53333 47.0667V49.3333ZM23.8667 27.9333C25.6 27.9333 27.0333 27.3667 28.1667 26.2333C29.3 25.1 29.8667 23.6667 29.8667 21.9333C29.8667 20.2 29.3 18.7667 28.1667 17.6333C27.0333 16.5 25.6 15.9333 23.8667 15.9333C22.1333 15.9333 20.7 16.5 19.5667 17.6333C18.4333 18.7667 17.8667 20.2 17.8667 21.9333C17.8667 23.6667 18.4333 25.1 19.5667 26.2333C20.7 27.3667 22.1333 27.9333 23.8667 27.9333Z" fill="black"/>
</svg>
