<svg width="60" height="60" viewBox="0 0 60 60" fill="none" xmlns="http://www.w3.org/2000/svg">
<path d="M5 50V44.125C5 42.7083 5.35417 41.4062 6.0625 40.2188C6.77083 39.0312 7.83333 38.125 9.25 37.5C12.25 36.1667 15 35.2083 17.5 34.625C20 34.0417 22.5 33.75 25 33.75C26.2083 33.75 27.4896 33.8229 28.8438 33.9688C30.1979 34.1146 31.5833 34.375 33 34.75L29.9375 37.8125C29.1042 37.7292 28.2812 37.6562 27.4688 37.5938C26.6562 37.5312 25.8333 37.5 25 37.5C22.5833 37.5 20.3854 37.7188 18.4062 38.1562C16.4271 38.5938 13.875 39.5 10.75 40.875C10.0417 41.2083 9.53125 41.6875 9.21875 42.3125C8.90625 42.9375 8.75 43.5417 8.75 44.125V46.25H28.6875L32.4375 50H5ZM39.0625 51L30.25 42.1875L32.875 39.5625L39.0625 45.75L52.375 32.4375L55 35.0625L39.0625 51ZM25 29.875C22.25 29.875 20 29 18.25 27.25C16.5 25.5 15.625 23.25 15.625 20.5C15.625 17.75 16.5 15.5 18.25 13.75C20 12 22.25 11.125 25 11.125C27.75 11.125 30 12 31.75 13.75C33.5 15.5 34.375 17.75 34.375 20.5C34.375 23.25 33.5 25.5 31.75 27.25C30 29 27.75 29.875 25 29.875ZM25 26.125C26.625 26.125 27.9688 25.5938 29.0312 24.5312C30.0938 23.4688 30.625 22.125 30.625 20.5C30.625 18.875 30.0938 17.5312 29.0312 16.4688C27.9688 15.4062 26.625 14.875 25 14.875C23.375 14.875 22.0312 15.4062 20.9688 16.4688C19.9062 17.5312 19.375 18.875 19.375 20.5C19.375 22.125 19.9062 23.4688 20.9688 24.5312C22.0312 25.5938 23.375 26.125 25 26.125Z" fill="black"/>
</svg>
