<svg width="40" height="32" viewBox="0 0 40 32" fill="none" xmlns="http://www.w3.org/2000/svg">
<path d="M0 31.1V26.4C0 25.2667 0.283333 24.225 0.85 23.275C1.41667 22.325 2.26667 21.6 3.4 21.1C5.8 20.0333 8 19.2667 10 18.8C12 18.3333 14 18.1 16 18.1C16.9667 18.1 17.9917 18.1583 19.075 18.275C20.1583 18.3917 21.2667 18.6 22.4 18.9L19.95 21.35C19.2833 21.2833 18.625 21.225 17.975 21.175C17.325 21.125 16.6667 21.1 16 21.1C14.0667 21.1 12.3083 21.275 10.725 21.625C9.14167 21.975 7.1 22.7 4.6 23.8C4.03333 24.0667 3.625 24.45 3.375 24.95C3.125 25.45 3 25.9333 3 26.4V28.1H18.95L21.95 31.1H0ZM27.25 31.9L20.2 24.85L22.3 22.75L27.25 27.7L37.9 17.05L40 19.15L27.25 31.9ZM16 15C13.8 15 12 14.3 10.6 12.9C9.2 11.5 8.5 9.7 8.5 7.5C8.5 5.3 9.2 3.5 10.6 2.1C12 0.7 13.8 0 16 0C18.2 0 20 0.7 21.4 2.1C22.8 3.5 23.5 5.3 23.5 7.5C23.5 9.7 22.8 11.5 21.4 12.9C20 14.3 18.2 15 16 15ZM16 12C17.3 12 18.375 11.575 19.225 10.725C20.075 9.875 20.5 8.8 20.5 7.5C20.5 6.2 20.075 5.125 19.225 4.275C18.375 3.425 17.3 3 16 3C14.7 3 13.625 3.425 12.775 4.275C11.925 5.125 11.5 6.2 11.5 7.5C11.5 8.8 11.925 9.875 12.775 10.725C13.625 11.575 14.7 12 16 12Z" fill="white"/>
</svg>
