<svg width="36" height="36" viewBox="0 0 36 36" fill="none" xmlns="http://www.w3.org/2000/svg">
<path d="M17.8514 29.7C18.3838 29.7 18.8333 29.5162 19.2 29.1486C19.5667 28.781 19.75 28.331 19.75 27.7986C19.75 27.2662 19.5662 26.8167 19.1986 26.45C18.831 26.0833 18.381 25.9 17.8486 25.9C17.3162 25.9 16.8667 26.0838 16.5 26.4514C16.1333 26.819 15.95 27.269 15.95 27.8014C15.95 28.3338 16.1338 28.7833 16.5014 29.15C16.869 29.5167 17.319 29.7 17.8514 29.7ZM16.2 22.3H19.05C19.05 21.2667 19.2167 20.425 19.55 19.775C19.8833 19.125 20.462 18.388 21.2861 17.5639C22.3954 16.4546 23.1667 15.475 23.6 14.625C24.0333 13.775 24.25 12.8833 24.25 11.95C24.25 10.1833 23.6833 8.78333 22.55 7.75C21.4167 6.71667 19.8913 6.2 17.9739 6.2C16.245 6.2 14.7755 6.60833 13.5653 7.425C12.3551 8.24167 11.4667 9.36667 10.9 10.8L13.55 11.9C14.0167 10.9667 14.62 10.2583 15.36 9.775C16.1 9.29167 16.9633 9.05 17.95 9.05C19.0167 9.05 19.8583 9.31667 20.475 9.85C21.0917 10.3833 21.4 11.1183 21.4 12.0549C21.4 12.7183 21.2167 13.3583 20.85 13.975C20.4833 14.5917 19.8667 15.3167 19 16.15C17.7667 17.3167 16.9917 18.3167 16.675 19.15C16.3583 19.9833 16.2 21.0333 16.2 22.3ZM3 36C2.2 36 1.5 35.7 0.9 35.1C0.3 34.5 0 33.8 0 33V3C0 2.2 0.3 1.5 0.9 0.9C1.5 0.3 2.2 0 3 0H33C33.8 0 34.5 0.3 35.1 0.9C35.7 1.5 36 2.2 36 3V33C36 33.8 35.7 34.5 35.1 35.1C34.5 35.7 33.8 36 33 36H3ZM3 33H33V3H3V33Z" fill="#EEEEEE"/>
</svg>
